Coordinates
version=1
nRows=5
nColumns=42
inDegrees=yes

Units are S.I. units (second, meters, Newtons, ...)
If the header above contains a line with 'inDegrees', this indicates whether rotational values are in degrees (yes) or radians (no).

endheader
time	pelvis_tilt	pelvis_list	pelvis_rotation	pelvis_tx	pelvis_ty	pelvis_tz	hip_flexion_r	hip_adduction_r	hip_rotation_r	knee_angle_r	knee_adduction_r	knee_angle_r_beta	ankle_angle_r	subtalar_angle_r	mtp_angle_r	hip_flexion_l	hip_adduction_l	hip_rotation_l	knee_angle_l	knee_adduction_l	knee_angle_l_beta	ankle_angle_l	subtalar_angle_l	mtp_angle_l	lumbar_extension	lumbar_bending	lumbar_rotation	arm_flex_r	arm_add_r	arm_rot_r	elbow_flex_r	pro_sup_r	wrist_flex_r	wrist_dev_r	arm_flex_l	arm_add_l	arm_rot_l	elbow_flex_l	pro_sup_l	wrist_flex_l	wrist_dev_l
      0.88000000	     14.22129786	     -1.26534124	      6.06894448	     -1.48364250	      0.89746950	      0.15076301	     -8.91217728	      2.19954053	    -26.85670272	     17.37076270	      2.32262872	      0.30317700	     19.22876598	     35.88074136	     -7.68770090	     -6.13469028	     -3.92507801	    -15.29039402	     52.72488224	    -14.27075466	      0.92022279	     21.16657325	     19.94229857	     -7.68770090	    -39.70971681	      7.15459446	     -4.19739222	      4.64123624	    -14.75429184	      9.15388118	     47.36552526	     90.00000001	      0.00000000	      0.00000000	     11.15509248	    -13.54374947	      1.01209207	     48.90947355	     90.00000001	      0.00000000	      0.00000000
      0.89000000	     14.19533896	     -1.03402080	      6.02173025	     -1.47161481	      0.89805341	      0.15135475	    -10.11786511	      2.15050964	    -26.21093489	     16.69487820	      2.64218752	      0.29138059	     19.73946877	     35.60984567	     -7.68435648	     -4.22478599	     -3.53295984	    -15.35316193	     52.60426329	    -14.21422935	      0.91811759	     22.00114945	     19.08988471	     -7.68435648	    -39.84133345	      6.80754545	     -4.02531012	      5.05616382	    -15.06751653	      9.29275875	     47.83878060	     90.00000001	      0.00000000	      0.00000000	     10.57980182	    -13.46251806	      0.90330768	     48.60332700	     90.00000001	      0.00000000	      0.00000000
      0.90000000	     14.25285911	     -0.87386647	      5.86635037	     -1.45939020	      0.89850107	      0.15206572	    -11.44212699	      2.19756369	    -25.37430280	     15.90558200	      2.93535682	      0.27760478	     20.25106365	     35.38743581	     -7.68079863	     -2.54190856	     -3.21908938	    -15.46671470	     52.13376023	    -14.01230665	      0.90990577	     22.76612871	     18.15807326	     -7.68079863	    -40.03404832	      6.47878242	     -3.72762009	      5.45388860	    -15.45185786	      9.52584957	     48.33615686	     90.00000001	      0.00000000	      0.00000000	      9.95906975	    -13.35382986	      0.72463352	     48.33901428	     90.00000001	      0.00000000	      0.00000000
      0.91000000	     14.27797719	     -0.73653416	      5.64759129	     -1.44713093	      0.89866494	      0.15285802	    -12.70855607	      2.27359234	    -24.52604606	     15.12847618	      3.15408820	      0.26404172	     20.71484140	     35.01764195	     -7.67761123	     -0.89568585	     -2.93213673	    -15.67394757	     51.39103890	    -13.76065148	      0.89694283	     23.34692294	     17.35960996	     -7.67761123	    -40.18085907	      6.12054897	     -3.35962112	      5.84050076	    -15.83711604	      9.71194786	     48.79487518	     90.00000001	      0.00000000	      0.00000000	      9.30250767	    -13.23192502	      0.55739796	     48.13416311	     90.00000001	      0.00000000	      0.00000000
      0.92000000	     14.63316864	     -0.62025083	      5.30621877	     -1.43451753	      0.89914068	      0.15358632	    -14.58158719	      2.37633220	    -22.60474030	     13.83837841	      3.71901633	      0.24152527	     20.72278479	     33.61483373	     -7.66574819	      0.15527739	     -2.69347889	    -16.05961491	     50.13764131	    -13.44785747	      0.87506692	     23.64270700	     16.56319999	     -7.66574819	    -40.64898953	      5.77273861	     -2.92058433	      6.28362596	    -16.40788995	     10.34617648	     49.33242758	     90.00000001	      0.00000000	      0.00000000	      8.56750661	    -13.03241954	      0.07198117	     48.03745232	     90.00000001	      0.00000000	      0.00000000
